<?xml version="1.0" encoding="utf-8"?>
<!-- Generator: Adobe Illustrator 22.0.1, SVG Export Plug-In . SVG Version: 6.00 Build 0)  -->
<svg version="1.1" xmlns="http://www.w3.org/2000/svg" xmlns:xlink="http://www.w3.org/1999/xlink" x="0px" y="0px"
	 viewBox="0 0 415.2 60" style="enable-background:new 0 0 415.2 60;" xml:space="preserve">
<style type="text/css">
	.st0{display:none;}
	.st1{display:inline;fill:#C69C6D;}
	.st2{fill:#C69C6D;}
</style>
<g id="Layer_1">
</g>
<g id="Layer_2" class="st0">
	<rect class="st1" width="30" height="10"/>
	<rect x="10" class="st1" width="10" height="60"/>
	<rect x="150" class="st1" width="10" height="60"/>
	<rect x="150" class="st1" width="30" height="10"/>
	<rect x="170" class="st1" width="10" height="22"/>
	<polygon class="st1" points="150,38 180,8 180,22 150,52 	"/>
	<polygon class="st1" points="180,34 174,28 160,28 180,48 	"/>
	<rect x="170" y="34" class="st1" width="10" height="26"/>
	<rect x="150" y="50" class="st1" width="30" height="10"/>
	<rect x="30" class="st1" width="10" height="60"/>
	<rect x="30" class="st1" width="30" height="10"/>
	<rect x="30" y="50" class="st1" width="30" height="10"/>
	<rect x="30" y="26" class="st1" width="20" height="10"/>
	<polygon class="st1" points="60,34 90,4 90,18 60,48 	"/>
	<rect x="56" y="4" transform="matrix(6.123234e-17 -1 1 6.123234e-17 56 74)" class="st1" width="18" height="10"/>
	<rect x="76" y="4" transform="matrix(6.123234e-17 -1 1 6.123234e-17 76 94)" class="st1" width="18" height="10"/>
	<polygon class="st1" points="90,34 60,4 60,18 90,48 	"/>
	<rect x="74" y="44" transform="matrix(6.123234e-17 -1 1 6.123234e-17 36 134)" class="st1" width="22" height="10"/>
	<rect x="53.5" y="43.5" transform="matrix(6.123234e-17 -1 1 6.123234e-17 16.5 113.5)" class="st1" width="23" height="10"/>
	<polyline class="st1" points="120,10 90,10 90,0 120,0 	"/>
	<rect x="100" class="st1" width="10" height="60"/>
	<rect x="180" class="st1" width="10" height="60"/>
	<rect x="180" class="st1" width="30" height="10"/>
	<rect x="200" class="st1" width="10" height="22"/>
	<polygon class="st1" points="180,38 210,8 210,22 180,52 	"/>
	<polygon class="st1" points="210,34 204,28 190,28 210,48 	"/>
	<rect x="200" y="34" class="st1" width="10" height="26"/>
	<polyline class="st1" points="210,0 220,0 220,60 210,60 	"/>
	<polyline class="st1" points="210,10 240,10 240,0 210,0 	"/>
	<rect x="230" class="st1" width="10" height="60"/>
	<polygon class="st1" points="210,52 240,22 240,8 210,38 	"/>
	<polyline class="st1" points="250,40 250,0 240,0 240,40 	"/>
	<polyline class="st1" points="274,50 256,50 256,60 274,60 	"/>
	<polyline class="st1" points="290,40 290,0 280,0 280,40 	"/>
	<polyline class="st1" points="270,60 270,40 260,40 260,60 	"/>
	<polygon class="st1" points="270,60 240,30 240,44 256,60 	"/>
	<polygon class="st1" points="260,60 290,30 290,44 274,60 	"/>
	<rect x="290" class="st1" width="10" height="60"/>
	<polyline class="st1" points="320,60 290,60 290,50 320,50 	"/>
	<rect x="320" class="st1" width="10" height="60"/>
	<rect x="320" class="st1" width="30" height="10"/>
	<rect x="320" y="50" class="st1" width="30" height="10"/>
	<rect x="320" y="26" class="st1" width="20" height="10"/>
	<rect x="350" y="0" class="st1" width="10" height="60"/>
	<rect x="350" y="0" class="st1" width="30" height="10"/>
	<polygon class="st1" points="350,38 380,8 380,22 350,52 	"/>
	<polygon class="st1" points="380,34 374,28 360,28 380,48 	"/>
	<rect x="370" y="34" class="st1" width="10" height="26"/>
	<rect x="370" y="0" class="st1" width="10" height="22"/>
	<polygon class="st1" points="388,60 410,38 410,52 402,60 	"/>
	<polygon class="st1" points="402,0 380,22 380,8 388,0 	"/>
	<rect x="380" y="50" class="st1" width="22" height="10"/>
	<rect x="388" y="0" class="st1" width="22" height="10"/>
	<polygon class="st1" points="380,8 402,30 388,30 380,22 	"/>
	<polygon class="st1" points="410,52 388,30 402,30 410,38 	"/>
	<rect x="400" y="38" class="st1" width="10" height="14"/>
	<rect x="380" y="8" class="st1" width="10" height="14"/>
</g>
<g id="Layer_16">
	<polygon points="1,1 29.5,0 30.5,1 30.5,10.8 20.7,10.8 20.7,60 10.8,60 9.8,59 10.8,10.8 1,10.8 0,9.8 	"/>
	<polygon points="31.5,60 30.5,59 31.5,1 60,0 61,1 61,10.8 41.3,10.8 41.3,26.6 50.2,25.6 51.2,26.6 51.2,36.4 41.3,36.4 
		41.3,50.2 60,49.2 61,50.2 61,60 	"/>
	<polygon points="62,60 61,59 62,34.4 69.9,26.6 62,18.7 62,1 70.8,0 71.8,1 71.8,14.8 76.7,19.7 81.7,14.8 81.7,1 90.5,0 91.5,1 
		91.5,18.7 83.6,26.6 91.5,34.4 91.5,60 81.7,60 80.7,59 81.7,38.4 76.7,33.4 71.8,38.4 71.8,60 	"/>
	<polygon points="91.6,1.7 121,0 122,1 122,10.8 112.2,10.8 112.2,60 102.3,60 101.3,59 102.3,10.8 92.5,10.8 91.5,9.8 	"/>
	<path d="M152.5,60l-1-1l1-58L181,0l1,1v21.6l-5.9,5.9l5.9,5.9V60H152.5z M162.3,28.5l9.8-9.8v-7.9h-9.8V28.5z M172.2,50.2V38.4
		l-3-3l-6.9,6.9v7.9H172.2z"/>
	<path d="M183,1l28.5-1l1,1v21.6l-5.9,5.9l5.9,5.9V60h-9.8l-1-1l1-20.6l-3-3l-6.9,6.9V60H183l-1-1L183,1z M192.8,28.5l9.8-9.8v-7.9
		h-9.8V28.5z"/>
	<path d="M213.5,60l-1-1l1-58L242,0l1,1v59l-9.8,0l-1-1l1-26.5l-9.8,9.8V60H213.5z M233.2,18.7v-7.9h-9.8v17.7L233.2,18.7z"/>
	<polygon points="244,1 244,44.2 259.7,60 277.4,60 293.2,44.3 293.2,1 292.2,0 283.3,1 283.3,40.3 273.5,50.2 273.5,40.3 
		272.5,39.3 263.7,40.3 263.7,50.2 253.8,40.3 253.8,1 252.8,0 	"/>
	<polygon points="294.2,60 293.2,59 294.2,1 303,0 304,1 304,50.2 322.7,49.2 323.7,50.2 323.7,60 	"/>
	<polygon points="324.7,60 323.7,59 323.6,1.5 353.2,0 354.2,1 354.2,10.8 334.5,10.8 334.5,26.6 343.3,25.6 344.3,26.6 344.3,36.4 
		334.5,36.4 334.5,50.2 353.2,49.2 354.2,50.2 354.2,60 	"/>
	<path d="M355.2,1l28.5-1l1,1v21.6l-5.9,5.9l5.9,5.9V60h-9.8l-1-1l1-20.6l-3-3l-6.9,6.9V60h-9.8l-1-1L355.2,1z M365,28.5l9.8-9.8
		v-7.9H365V28.5z"/>
	<polygon points="385.7,60 407.3,60 415.2,52.1 415.2,38.4 395.5,18.7 395.5,12.8 397.5,10.8 415.2,10.8 415.2,1 414.2,0 393.5,1 
		385.7,8.9 385.7,22.6 405.3,42.3 405.3,48.2 403.4,50.2 385.7,50.2 384.7,59 	"/>
</g>
<g id="Layer_17">
</g>
<g id="Layer_3">
	<polygon class="st2" points="0,0 29.5,0 29.5,9.8 19.7,9.8 19.7,59 9.8,59 9.8,9.8 0,9.8 	"/>
</g>
<g id="Layer_4">
	<polygon class="st2" points="30.5,59 30.5,0 60,0 60,9.8 40.3,9.8 40.3,25.6 50.2,25.6 50.2,35.4 40.3,35.4 40.3,49.2 60,49.2 
		60,59 	"/>
</g>
<g id="Layer_5">
	<polygon class="st2" points="61,59 61,33.4 68.9,25.6 61,17.7 61,0 70.8,0 70.8,13.8 75.7,18.7 80.7,13.8 80.7,0 90.5,0 90.5,17.7 
		82.6,25.6 90.5,33.4 90.5,59 80.7,59 80.7,37.4 75.7,32.4 70.8,37.4 70.8,59 	"/>
</g>
<g id="Layer_6">
	<polygon class="st2" points="91.5,0 121,0 121,9.8 111.2,9.8 111.2,59 101.3,59 101.3,9.8 91.5,9.8 	"/>
</g>
<g id="Layer_7">
	<path class="st2" d="M151.5,59V0H181v21.6l-5.9,5.9l5.9,5.9V59H151.5z M161.3,27.5l9.8-9.8V9.8h-9.8V27.5z M171.2,49.2V37.4l-3-3
		l-6.9,6.9v7.9H171.2z"/>
</g>
<g id="Layer_8">
	<path class="st2" d="M182,0h29.5v21.6l-5.9,5.9l5.9,5.9V59h-9.8V37.4l-3-3l-6.9,6.9V59H182V0z M191.8,27.5l9.8-9.8V9.8h-9.8V27.5z"
		/>
</g>
<g id="Layer_9">
	<path class="st2" d="M212.5,59V0H242v59l-9.8,0V31.5l-9.8,9.8V59H212.5z M232.2,17.7V9.8h-9.8v17.7L232.2,17.7z"/>
</g>
<g id="Layer_10">
	<polygon class="st2" points="243,0 243,43.2 258.7,59 276.4,59 292.2,43.3 292.2,0 282.3,0 282.3,39.3 272.5,49.2 272.5,39.3 
		262.7,39.3 262.7,49.2 252.8,39.3 252.8,0 	"/>
</g>
<g id="Layer_11">
	<polygon class="st2" points="293.2,59 293.2,0 303,0 303,49.2 322.7,49.2 322.7,59 	"/>
</g>
<g id="Layer_12">
	<polygon class="st2" points="323.7,59 323.7,0 353.2,0 353.2,9.8 333.5,9.8 333.5,25.6 343.3,25.6 343.3,35.4 333.5,35.4 
		333.5,49.2 353.2,49.2 353.2,59 	"/>
</g>
<g id="Layer_13">
	<path class="st2" d="M354.2,0h29.5v21.6l-5.9,5.9l5.9,5.9V59h-9.8V37.4l-3-3l-6.9,6.9V59h-9.8V0z M364,27.5l9.8-9.8V9.8H364V27.5z"
		/>
</g>
<g id="Layer_15">
	<polygon class="st2" points="384.7,59 406.3,59 414.2,51.1 414.2,37.4 394.5,17.7 394.5,11.8 396.5,9.8 414.2,9.8 414.2,0 392.5,0 
		384.7,7.9 384.7,21.6 404.3,41.3 404.3,47.2 402.4,49.2 384.7,49.2 	"/>
</g>
</svg>
